<svg xmlns="http://www.w3.org/2000/svg" viewBox="0 0 64 64" width="64" height="64">
  <!-- 陰影底座 -->
  <ellipse cx="32" cy="58" rx="20" ry="4" fill="#000000" opacity="0.2"/>
  
  <!-- 章魚珊瑚粉圓臉 -->
  <circle cx="32" cy="28" r="22" fill="#ff7675"/>
  
  <!-- 晶瑩 3D 亮光 -->
  <ellipse cx="23" cy="17" rx="6" ry="3.2" fill="#ffffff" opacity="0.55"/>
  <circle cx="18" cy="20" r="1.2" fill="#ffffff" opacity="0.4"/>
  
  <!-- 超水汪汪大眼睛 -->
  <circle cx="23" cy="26" r="4.8" fill="#ffffff"/>
  <circle cx="41" cy="26" r="4.8" fill="#ffffff"/>
  <circle cx="24" cy="26" r="2.8" fill="#2d3436"/>
  <circle cx="40" cy="26" r="2.8" fill="#2d3436"/>
  <circle cx="25.2" cy="24.5" r="1.3" fill="#ffffff"/>
  <circle cx="39.2" cy="24.5" r="1.3" fill="#ffffff"/>
  
  <!-- 可愛自然腮紅 -->
  <ellipse cx="17" cy="33" rx="4" ry="2.5" fill="#d63031" opacity="0.6"/>
  <ellipse cx="47" cy="33" rx="4" ry="2.5" fill="#d63031" opacity="0.6"/>
  
  <!-- 下方 Q 彈觸手群 -->
  <path d="M 12,42 Q 10,55 16,56 Q 22,55 22,46 Q 22,56 28,56 Q 34,55 32,46 Q 32,56 38,56 Q 44,55 44,46 Q 44,56 50,56 Q 54,51 49,42 Z" fill="#e84393"/>
</svg>
